<svg width="78" height="78" viewBox="0 0 78 78" fill="none" xmlns="http://www.w3.org/2000/svg">
<path d="M47.7425 21.8075C48.0438 22.1082 48.2828 22.4653 48.4459 22.8585C48.609 23.2516 48.6929 23.6731 48.6929 24.0988C48.6929 24.5244 48.609 24.9459 48.4459 25.339C48.2828 25.7322 48.0438 26.0893 47.7425 26.39L35.1325 39L47.7425 51.61C48.3502 52.2177 48.6916 53.0419 48.6916 53.9012C48.6916 54.7606 48.3502 55.5848 47.7425 56.1925C47.1348 56.8002 46.3106 57.1416 45.4513 57.1416C44.5919 57.1416 43.7677 56.8002 43.16 56.1925L28.2425 41.275C27.9412 40.9743 27.7022 40.6172 27.5391 40.224C27.376 39.8309 27.2921 39.4094 27.2921 38.9838C27.2921 38.5581 27.376 38.1366 27.5391 37.7435C27.7022 37.3503 27.9412 36.9932 28.2425 36.6925L43.16 21.775C44.395 20.54 46.475 20.54 47.7425 21.8075Z" fill="white"/>
</svg>
